<svg version="1.1" viewBox="-301 -344 602 524" xmlns="http://www.w3.org/2000/svg" xmlns:xlink="http://www.w3.org/1999/xlink">
 <defs>
  <clipPath id="d">
   <circle cy="-15" r="9.5"/>
   <circle transform="rotate(120)" cy="-15" r="9.5"/>
   <circle transform="rotate(240)" cy="-15" r="9.5"/>
  </clipPath>
  <mask id="b" maskUnits="userSpaceOnUse" x="-30" y="-30" width="60" height="60">
   <path d="m-27-27h54v54h-54z" fill="#fff"/>
   <path d="m2-23v-4h-4v4m1.5 17v4h1v-4"/>
   <circle cy="-15" r="10.5"/>
   <g transform="rotate(120)">
    <path d="m2-23v-4h-4v4m1.5 17v4h1v-4"/>
    <circle cy="-15" r="10.5"/>
   </g>
   <g transform="rotate(240)">
    <path d="m2-23v-4h-4v4m1.5 17v4h1v-4"/>
    <circle cy="-15" r="10.5"/>
   </g>
   <circle r="3"/>
  </mask>
 </defs>
 <path d="m0-328 284.0563324 492h-568.1126649z" fill="#e8bf28" stroke="#000" stroke-linejoin="round" stroke-width="32"/>
 <g transform="scale(6.5)">
  <g mask="url(#b)">
   <circle cy="-11" r="15"/>
   <circle cy="-11" r="15" transform="rotate(120)"/>
   <circle cy="-11" r="15" transform="rotate(240)"/>
  </g>
  <circle r="11.75" clip-path="url(#d)" fill="none" stroke="#000" stroke-width="3.5"/>
 </g>
</svg>
